<svg width="59" height="59" viewBox="0 0 59 59" fill="none" xmlns="http://www.w3.org/2000/svg">
<rect width="59" height="59" rx="29.5" fill="#262626"/>
<g clip-path="url(#clip0_25_10)">
<path fill-rule="evenodd" clip-rule="evenodd" d="M29.5 9C40.8221 9 50 18.4094 50 30.0185C50 39.303 44.1329 47.1791 35.9923 49.961C34.953 50.168 34.584 49.5116 34.584 48.952C34.584 48.2591 34.6086 45.996 34.6086 43.1834C34.6086 41.2236 33.9526 39.9445 33.2167 39.2926C37.782 38.7719 42.579 36.9943 42.579 28.9214C42.579 26.6254 41.7836 24.7518 40.4675 23.2799C40.6807 22.749 41.3838 20.6111 40.2666 17.7165C40.2666 17.7165 38.5487 17.1533 34.6352 19.8716C32.9973 19.4063 31.2425 19.1721 29.5 19.1639C27.7575 19.1721 26.0048 19.4063 24.3689 19.8716C20.4513 17.1533 18.7293 17.7165 18.7293 17.7165C17.6162 20.6111 18.3193 22.749 18.5305 23.2799C17.2205 24.7518 16.419 26.6254 16.419 28.9214C16.419 36.9738 21.2057 38.7786 25.7588 39.3096C25.1725 39.8344 24.6415 40.7602 24.457 42.1193C23.2885 42.6564 20.3201 43.586 18.4915 40.3736C18.4915 40.3736 17.4071 38.3541 15.3489 38.2065C15.3489 38.2065 13.3501 38.1799 15.2094 39.4837C15.2094 39.4837 16.5522 40.1295 17.485 42.5587C17.485 42.5587 18.6883 46.3102 24.3914 45.0392C24.4017 46.796 24.4201 48.4518 24.4201 48.952C24.4201 49.5075 24.0429 50.1577 23.0199 49.963C14.8732 47.1852 9 39.305 9 30.0185C9 18.4094 18.1799 9 29.5 9Z" fill="white"/>
</g>
<defs>
<clipPath id="clip0_25_10">
<rect width="41" height="41" fill="white" transform="translate(9 9)"/>
</clipPath>
</defs>
</svg>
