<svg width="58" height="59" viewBox="0 0 58 59" fill="none" xmlns="http://www.w3.org/2000/svg">
<rect width="58" height="59" rx="29" fill="#262626"/>
<path fill-rule="evenodd" clip-rule="evenodd" d="M21.4758 38.1249V19.9705H15.568V38.1249H21.4758V38.1249ZM18.5225 17.4927C20.5821 17.4927 21.865 16.0975 21.865 14.3554C21.826 12.5746 20.5821 11.2188 18.5612 11.2188C16.5399 11.2188 15.2188 12.5746 15.2188 14.3555C15.2188 16.0976 16.501 17.4928 18.4836 17.4928L18.5225 17.4927ZM24.7456 38.1249C24.7456 38.1249 24.8231 21.6739 24.7456 19.9706H30.6543V22.6033H30.6151C31.392 21.3645 32.7917 19.5442 35.9787 19.5442C39.8669 19.5442 42.7812 22.139 42.7812 27.7153V38.125H36.8735V28.4129C36.8735 25.9725 36.0187 24.3073 33.8801 24.3073C32.2482 24.3073 31.2757 25.4299 30.8486 26.5151C30.6923 26.9014 30.6543 27.4439 30.6543 27.9865V38.1249H24.7456Z" fill="white"/>
</svg>
