<svg width="59" height="59" viewBox="0 0 59 59" fill="none" xmlns="http://www.w3.org/2000/svg">
<rect width="59" height="59" rx="29.5" fill="#262626"/>
<path d="M34.5728 19.1693V26.1867L37.0875 27.7306C37.1783 27.75 37.2723 27.75 37.3631 27.7306L48.1755 20.6145C48.1676 20.2691 48.0382 19.937 47.809 19.6738C47.5798 19.4106 47.2647 19.2324 46.9168 19.1693H34.5728Z" fill="white" stroke="white"/>
<path d="M34.5728 28.8043L36.8657 30.3418C36.9731 30.4056 37.0963 30.4394 37.222 30.4394C37.3477 30.4394 37.471 30.4056 37.5784 30.3418C37.1846 30.5737 48.1742 23.4512 48.1742 23.4512V36.3483C48.2029 36.6096 48.1727 36.8739 48.0858 37.1227C47.9988 37.3714 47.8573 37.5987 47.671 37.7884C47.4847 37.9782 47.2582 38.126 47.0073 38.2213C46.7565 38.3167 46.4873 38.3574 46.2186 38.3406H34.5714L34.5728 28.8043Z" fill="white" stroke="white"/>
<path d="M22.7025 25.5691C22.3215 25.5673 21.9471 25.6662 21.619 25.8552C21.2909 26.0442 21.0213 26.3164 20.8388 26.6428C20.3402 27.5081 20.1009 28.4929 20.1484 29.4846C20.0966 30.4743 20.3361 31.4578 20.8388 32.3187C21.0205 32.6317 21.2835 32.8925 21.6013 33.0749C21.919 33.2572 22.2803 33.3547 22.6489 33.3576C23.0175 33.3604 23.3803 33.2685 23.701 33.0911C24.0216 32.9137 24.2888 32.6571 24.4757 32.3469C24.9728 31.4899 25.2074 30.5115 25.1516 29.5282C25.2086 28.5139 24.9817 27.5036 24.4954 26.6056C24.3216 26.2898 24.0627 26.0264 23.7468 25.8437C23.4308 25.661 23.0697 25.5661 22.7025 25.5691Z" fill="white" stroke="white"/>
<path d="M11.8258 15.6048V43.0582L33.2196 47.4375V11.5625L11.8258 15.6048ZM26.1426 33.9728C25.7424 34.5236 25.2102 34.9704 24.5925 35.2744C23.9749 35.5783 23.2904 35.7301 22.5988 35.7166C21.9246 35.7283 21.2575 35.5809 20.6543 35.2869C20.051 34.9929 19.5294 34.561 19.1338 34.0279C18.1956 32.7493 17.7263 31.1992 17.8016 29.6281C17.7218 27.98 18.1996 26.352 19.1614 24.9951C19.5666 24.4338 20.1071 23.9785 20.7352 23.6693C21.3633 23.36 22.0596 23.2064 22.7629 23.2219C23.4322 23.2088 24.0945 23.3562 24.6918 23.6513C25.2891 23.9464 25.803 24.3802 26.1885 24.9144C27.1173 26.2208 27.5786 27.7899 27.501 29.3783C27.5828 31.0145 27.1049 32.6308 26.1426 33.9728Z" fill="white" stroke="white"/>
</svg>
